<svg width="48" height="48" viewBox="0 0 48 48" fill="none" xmlns="http://www.w3.org/2000/svg">
<path d="M21.0242 37.9319C20.9582 38.0756 20.8512 38.1966 20.7168 38.2799C20.5823 38.3631 20.4263 38.4049 20.2682 38.3999H10.4402C10.3081 38.3961 10.1778 38.3676 10.0562 38.3159C9.86042 38.2156 9.71179 38.0425 9.64223 37.8339C9.57267 37.6252 9.58774 37.3975 9.6842 37.1999L16.8002 23.0519C16.8568 22.9318 16.9437 22.8284 17.0522 22.7519C17.1382 22.6773 17.2388 22.6215 17.3476 22.5881C17.4565 22.5548 17.5711 22.5445 17.6841 22.5581C17.7971 22.5717 17.906 22.6087 18.0039 22.6669C18.1017 22.7251 18.1863 22.8031 18.2522 22.8959C21.8642 26.8799 23.1482 33.5999 21.0242 37.9319ZM23.3162 10.0559C21.556 12.7651 20.5309 15.8856 20.3415 19.1109C20.1522 22.3362 20.8051 25.5553 22.2362 28.4519L26.9762 37.9319C27.0458 38.0728 27.1536 38.1914 27.2872 38.2741C27.4208 38.3568 27.575 38.4004 27.7322 38.3999H37.5602C37.7841 38.3999 37.999 38.3118 38.1585 38.1546C38.3179 37.9974 38.409 37.7837 38.4122 37.5599C38.4103 37.4262 38.3775 37.2947 38.3162 37.1759L24.7562 10.0439C24.6896 9.90985 24.5869 9.79708 24.4597 9.71825C24.3325 9.63942 24.1858 9.59766 24.0362 9.59766C23.8865 9.59766 23.7399 9.63942 23.6127 9.71825C23.4855 9.79708 23.3828 9.90985 23.3162 10.0439V10.0559Z" fill="#10B981"/>
</svg>
